<svg width="40" height="40" viewBox="0 0 40 40" fill="none" xmlns="http://www.w3.org/2000/svg">
<circle cx="20" cy="20" r="20" fill="#0078BD" fill-opacity="0.06"/>
<path d="M21.7081 15C22.5221 15.1588 23.2701 15.5569 23.8565 16.1433C24.4429 16.7297 24.841 17.4777 24.9998 18.2917M21.7081 11.6667C23.3992 11.8546 24.9761 12.6118 26.18 13.8142C27.3839 15.0166 28.1431 16.5925 28.3331 18.2834M18.5223 21.5526C17.521 20.5513 16.7303 19.4191 16.1503 18.211C16.1004 18.1071 16.0755 18.0552 16.0563 17.9894C15.9882 17.7558 16.0371 17.4689 16.1788 17.2711C16.2187 17.2154 16.2663 17.1678 16.3616 17.0725C16.6529 16.7812 16.7986 16.6355 16.8938 16.489C17.253 15.9366 17.253 15.2245 16.8938 14.672C16.7986 14.5256 16.6529 14.3799 16.3616 14.0886L16.1992 13.9262C15.7563 13.4833 15.5349 13.2619 15.2971 13.1416C14.8241 12.9024 14.2655 12.9024 13.7926 13.1416C13.5547 13.2619 13.3333 13.4833 12.8904 13.9262L12.7591 14.0575C12.3177 14.4989 12.0971 14.7196 11.9285 15.0196C11.7415 15.3525 11.607 15.8696 11.6082 16.2514C11.6092 16.5956 11.6759 16.8307 11.8094 17.3011C12.5269 19.8289 13.8806 22.2142 15.8706 24.2042C17.8606 26.1942 20.2459 27.5479 22.7737 28.2654C23.2441 28.3989 23.4793 28.4657 23.8234 28.4667C24.2053 28.4678 24.7224 28.3334 25.0553 28.1463C25.3553 27.9778 25.576 27.7571 26.0173 27.3158L26.1487 27.1844C26.5916 26.7415 26.813 26.5201 26.9333 26.2823C27.1725 25.8093 27.1725 25.2508 26.9333 24.7778C26.813 24.54 26.5916 24.3186 26.1487 23.8757L25.9863 23.7133C25.695 23.422 25.5493 23.2763 25.4028 23.1811C24.8504 22.8219 24.1383 22.8219 23.5858 23.1811C23.4394 23.2763 23.2937 23.422 23.0024 23.7133C22.9071 23.8086 22.8595 23.8562 22.8038 23.8961C22.6059 24.0377 22.319 24.0866 22.0854 24.0185C22.0197 23.9994 21.9677 23.9744 21.8638 23.9245C20.6558 23.3445 19.5236 22.5539 18.5223 21.5526Z" stroke="#0078BD" stroke-width="1.5" stroke-linecap="round" stroke-linejoin="round"/>
</svg>
