<svg width="16" height="16" viewBox="0 0 16 16" fill="none" xmlns="http://www.w3.org/2000/svg">
<path d="M3.33337 8.66669H5.33337M1.33337 6.00002L2.66671 6.66669L3.5138 4.1254C3.68865 3.60085 3.77608 3.33858 3.93823 3.14467C4.08143 2.97344 4.26532 2.8409 4.47304 2.7592C4.70828 2.66669 4.98474 2.66669 5.53766 2.66669H10.4624C11.0153 2.66669 11.2918 2.66669 11.527 2.7592C11.7348 2.8409 11.9187 2.97344 12.0618 3.14467C12.224 3.33858 12.3114 3.60085 12.4863 4.1254L13.3334 6.66669L14.6667 6.00002M10.6667 8.66669H12.6667M4.53337 6.66669H11.4667C12.5868 6.66669 13.1469 6.66669 13.5747 6.88467C13.951 7.07642 14.257 7.38238 14.4487 7.75871C14.6667 8.18653 14.6667 8.74658 14.6667 9.86669V11.6667C14.6667 11.9765 14.6667 12.1313 14.6411 12.2601C14.5359 12.7891 14.1224 13.2025 13.5935 13.3077C13.4647 13.3334 13.3098 13.3334 13 13.3334H12.6667C11.9303 13.3334 11.3334 12.7364 11.3334 12C11.3334 11.8159 11.1841 11.6667 11 11.6667H5.00004C4.81595 11.6667 4.66671 11.8159 4.66671 12C4.66671 12.7364 4.06975 13.3334 3.33337 13.3334H3.00004C2.69027 13.3334 2.53539 13.3334 2.40659 13.3077C1.87767 13.2025 1.4642 12.7891 1.35899 12.2601C1.33337 12.1313 1.33337 11.9765 1.33337 11.6667V9.86669C1.33337 8.74658 1.33337 8.18653 1.55136 7.75871C1.74311 7.38238 2.04907 7.07642 2.42539 6.88467C2.85322 6.66669 3.41327 6.66669 4.53337 6.66669Z" stroke="#666666" stroke-width="1.2" stroke-linecap="round" stroke-linejoin="round"/>
</svg>
