<svg width="12" height="14" viewBox="0 0 12 14" fill="none" xmlns="http://www.w3.org/2000/svg">
<path d="M11.2668 12.6C11.2668 11.6696 11.2668 11.2044 11.1519 10.8259C10.8934 9.97361 10.2265 9.30667 9.37419 9.04813C8.99566 8.93331 8.53047 8.93331 7.6001 8.93331H4.26677C3.33639 8.93331 2.8712 8.93331 2.49267 9.04813C1.6404 9.30667 0.973458 9.97361 0.714924 10.8259C0.600098 11.2044 0.600098 11.6696 0.600098 12.6M8.93343 3.59998C8.93343 5.25683 7.59029 6.59998 5.93343 6.59998C4.27658 6.59998 2.93343 5.25683 2.93343 3.59998C2.93343 1.94312 4.27658 0.599976 5.93343 0.599976C7.59029 0.599976 8.93343 1.94312 8.93343 3.59998Z" stroke="#666666" stroke-width="1.2" stroke-linecap="round" stroke-linejoin="round"/>
</svg>
