<svg width="12" height="12" viewBox="0 0 12 12" fill="none" xmlns="http://www.w3.org/2000/svg">
<path d="M7.26496 4.73496L4.73496 7.26496C4.40996 6.93996 4.20996 6.49496 4.20996 5.99996C4.20996 5.00996 5.00996 4.20996 5.99996 4.20996C6.49496 4.20996 6.93996 4.40996 7.26496 4.73496Z" stroke="#5A5A5A" stroke-linecap="round" stroke-linejoin="round"/>
<path d="M8.90992 2.88499C8.03492 2.22499 7.03492 1.86499 5.99992 1.86499C4.23492 1.86499 2.58992 2.90499 1.44492 4.70499C0.994922 5.40999 0.994922 6.59499 1.44492 7.29999C1.83992 7.91999 2.29992 8.45499 2.79992 8.88499" stroke="#5A5A5A" stroke-linecap="round" stroke-linejoin="round"/>
<path d="M4.20996 9.76497C4.77996 10.005 5.38496 10.135 5.99996 10.135C7.76496 10.135 9.40996 9.09497 10.555 7.29497C11.005 6.58997 11.005 5.40497 10.555 4.69997C10.39 4.43997 10.21 4.19497 10.025 3.96497" stroke="#5A5A5A" stroke-linecap="round" stroke-linejoin="round"/>
<path d="M7.75497 6.34998C7.62497 7.05498 7.04997 7.62998 6.34497 7.75998" stroke="#5A5A5A" stroke-linecap="round" stroke-linejoin="round"/>
<path d="M4.735 7.26501L1 11" stroke="#5A5A5A" stroke-linecap="round" stroke-linejoin="round"/>
<path d="M10.9999 1L7.26489 4.735" stroke="#5A5A5A" stroke-linecap="round" stroke-linejoin="round"/>
</svg>
