<svg width="16" height="16" viewBox="0 0 16 16" fill="none" xmlns="http://www.w3.org/2000/svg">
<path d="M7.33329 13.2666V2.73331C7.33329 1.73331 6.90663 1.33331 5.84663 1.33331H3.15329C2.09329 1.33331 1.66663 1.73331 1.66663 2.73331V13.2666C1.66663 14.2666 2.09329 14.6666 3.15329 14.6666H5.84663C6.90663 14.6666 7.33329 14.2666 7.33329 13.2666Z" fill="white"/>
<path d="M14.3333 13.0934V10.24C14.3333 9.37335 13.6666 8.66669 12.8466 8.66669H10.1533C9.33329 8.66669 8.66663 9.37335 8.66663 10.24V13.0934C8.66663 13.96 9.33329 14.6667 10.1533 14.6667H12.8466C13.6666 14.6667 14.3333 13.96 14.3333 13.0934Z" fill="white"/>
<path d="M14.3333 5.75998V2.90665C14.3333 2.03998 13.6666 1.33331 12.8466 1.33331H10.1533C9.33329 1.33331 8.66663 2.03998 8.66663 2.90665V5.75998C8.66663 6.62665 9.33329 7.33331 10.1533 7.33331H12.8466C13.6666 7.33331 14.3333 6.62665 14.3333 5.75998Z" fill="white"/>
</svg>
