<svg width="20" height="20" viewBox="0 0 20 20" fill="none" xmlns="http://www.w3.org/2000/svg">
<g clip-path="url(#clip0_1_966)">
<path d="M17.5508 0.078125C16.7617 0.285156 15.8555 0.839844 15.0469 1.62109C14.7109 1.94141 14.1445 2.58984 14.082 2.72266C14.082 2.72656 13.2891 2.54688 12.3242 2.32422L10.5664 1.91797L5.28125 7.19922C2.37891 10.1055 0 12.4961 0 12.5195C0 12.5703 7.42969 20 7.48047 20C7.50391 20 9.89844 17.6211 12.8008 14.7188L18.082 9.43359L17.6797 7.67578C17.4531 6.71094 17.2734 5.91797 17.2773 5.91406C17.2812 5.91406 17.4336 5.79688 17.6172 5.65625C18.7539 4.78125 19.6602 3.5 19.9219 2.40625C20.0195 2.01172 20.0234 1.42969 19.9375 1.12891C19.7812 0.601562 19.3945 0.226562 18.832 0.0625C18.5352 -0.0234375 17.9141 -0.015625 17.5508 0.078125ZM18.5977 1.26953C19.0156 1.48828 18.7539 2.52734 18.0352 3.5C17.9258 3.64844 17.6445 3.96094 17.4062 4.19922L16.9766 4.62891L16.9297 4.43359C16.9023 4.32422 16.8359 4.03516 16.7773 3.78516L16.6758 3.32812L16.2969 3.24219C16.0898 3.19531 15.7969 3.12891 15.6523 3.08984L15.3828 3.02734L15.6445 2.74609C16.6211 1.6875 18.0391 0.980469 18.5977 1.26953ZM12.2539 3.55859C12.9141 3.71094 13.4609 3.83984 13.4648 3.84375C13.4688 3.84766 13.4258 3.99219 13.3711 4.16016C13.2812 4.43359 13.2656 4.53906 13.2656 5C13.2617 5.57422 13.3086 5.77734 13.5117 6.07422C13.7031 6.35547 13.7031 6.35547 14.1602 5.89453L14.5742 5.48438L14.5156 5.36719C14.4805 5.30469 14.4531 5.15625 14.4531 5.03125C14.4531 4.78125 14.625 4.1875 14.7031 4.15625C14.7422 4.14062 15.6211 4.32031 15.6523 4.34766C15.6562 4.35156 15.9023 5.41406 16.1992 6.70703L16.7422 9.05859L16.2734 9.52734L15.8008 10L12.9102 7.10938L10.0195 4.21875L10.4883 3.75C10.7461 3.49219 10.9766 3.28125 11.0039 3.28125C11.0273 3.28125 11.5898 3.40625 12.2539 3.55859ZM11.2227 14.5781L7.5 18.3008L4.60938 15.4102L1.71875 12.5195L5.4375 8.80078L9.16016 5.07812L12.0508 7.96875L14.9414 10.8594L11.2227 14.5781Z" fill="#0078BD"/>
<path d="M10.3281 8.79297L9.89453 9.22656L9.75781 9.18359C9.06641 8.95703 8.30859 9.13672 7.84766 9.64062C7.21875 10.3281 7.20703 11.332 7.82812 12.0703C7.92578 12.1875 8.01953 12.3438 8.03125 12.4141C8.11328 12.8516 7.64844 13.2148 7.25 13.0273C7.05859 12.9375 6.94531 12.7656 6.92188 12.5352C6.90625 12.3477 6.89844 12.3438 6.74219 12.3008C6.11719 12.1289 5.75781 12.043 5.74219 12.0586C5.73047 12.0664 5.72266 12.2734 5.72266 12.5117C5.72656 12.8438 5.74219 12.9883 5.79297 13.1055L5.86328 13.2578L5.40234 13.7188L4.94141 14.1797L5.38281 14.6172L5.82031 15.0586L6.27734 14.6016L6.73828 14.1484L6.89453 14.207C7.11719 14.2891 7.59766 14.3164 7.85938 14.2617C8.50391 14.125 9.03516 13.6133 9.20312 12.9688C9.32422 12.4883 9.21875 11.8711 8.95312 11.5195C8.89453 11.4414 8.78906 11.3047 8.72266 11.2109C8.42188 10.8164 8.66406 10.3125 9.14844 10.3125C9.46484 10.3125 9.6875 10.5391 9.70312 10.875L9.71094 11.0352L10.2695 11.1836C10.6523 11.2852 10.8438 11.3203 10.8711 11.293C10.9375 11.2266 10.9219 10.5898 10.8438 10.3359L10.7773 10.1055L11.207 9.67188C11.4453 9.43359 11.6406 9.21875 11.6406 9.19922C11.6406 9.14844 10.8516 8.35938 10.8008 8.35938C10.7773 8.35938 10.5664 8.55469 10.3281 8.79297Z" fill="#0078BD"/>
</g>
<defs>
<clipPath id="clip0_1_966">
<rect width="20" height="20" fill="white"/>
</clipPath>
</defs>
</svg>
