<svg width="20" height="20" viewBox="0 0 20 20" fill="none" xmlns="http://www.w3.org/2000/svg">
<path d="M7.96879 0.429688C7.89848 0.5 7.89067 0.558594 7.89067 1.14453V1.77734L7.53129 1.87109C6.86333 2.03906 6.13286 2.34766 5.52739 2.71094L5.29301 2.85156L4.88286 2.44531C4.65629 2.22266 4.43364 2.01953 4.38286 1.99219C4.19536 1.89844 4.10161 1.96875 3.19145 2.88281C2.38676 3.69141 2.30473 3.78516 2.30473 3.90625C2.30473 4.01953 2.35942 4.09375 2.75004 4.48828L3.19536 4.94141L2.99614 5.27344C2.65629 5.83984 2.24223 6.89062 2.16411 7.37891L2.13676 7.53906H1.53911C0.898482 7.53906 0.777388 7.56641 0.707076 7.72266C0.679732 7.78516 0.664107 8.22656 0.664107 9.03906C0.664107 10.6016 0.585982 10.4648 1.4727 10.4766L2.12114 10.4883L2.23051 10.8984C2.28911 11.125 2.40239 11.4766 2.48051 11.6797C2.62114 12.0469 2.98833 12.7773 3.12504 12.9688L3.19536 13.0664L2.75004 13.5234C2.36333 13.918 2.30473 13.9961 2.30473 14.1055C2.30473 14.2227 2.39848 14.3281 3.21098 15.1445C4.04301 15.9805 4.12895 16.0547 4.25395 16.0547C4.37114 16.0547 4.44145 16.0039 4.83989 15.6094L5.29301 15.1602L5.39067 15.2344C5.5977 15.3828 6.02348 15.5938 6.05083 15.5625C6.15239 15.4492 7.14848 13.7305 7.12114 13.7227C7.10161 13.7148 6.94536 13.6289 6.77739 13.5352C5.46489 12.7852 4.5352 11.4883 4.23051 9.96875C4.13676 9.49609 4.13676 8.50391 4.23051 8.04688C4.68364 5.89062 6.30473 4.28906 8.43754 3.88672C8.93754 3.78906 9.77348 3.78906 10.2735 3.88672C12.1563 4.24609 13.6993 5.57812 14.293 7.36719C14.5 7.98438 14.543 8.28125 14.5508 9.01562L14.5547 9.69531L15.2774 10.8984C15.6719 11.5625 16.0157 12.1016 16.0352 12.0938C16.0938 12.0781 16.3594 11.3711 16.4805 10.9023L16.5899 10.4883L17.2383 10.4766C18.125 10.4648 18.0469 10.6016 18.0469 9.03906C18.0469 8.22656 18.0313 7.78516 18.004 7.72266C17.9336 7.56641 17.8125 7.53906 17.1719 7.53906H16.5743L16.5469 7.37891C16.4688 6.89062 16.0547 5.83984 15.7149 5.27344L15.5157 4.94141L15.961 4.48828C16.3516 4.09375 16.4063 4.01953 16.4063 3.90625C16.4063 3.78516 16.3243 3.69141 15.5196 2.88281C14.6094 1.96875 14.5157 1.89844 14.3282 1.99219C14.2774 2.01953 14.0547 2.22266 13.8282 2.44531L13.4141 2.85156L13.2266 2.73438C12.6954 2.39844 11.8086 2.02344 11.1719 1.86719L10.8204 1.78125V1.14453C10.8204 0.558594 10.8125 0.5 10.7422 0.429688C10.668 0.355469 10.6133 0.351562 9.35551 0.351562C8.0977 0.351562 8.04301 0.355469 7.96879 0.429688Z" fill="#0078BD"/>
<path d="M11.7228 7.29297C11.6603 7.35547 10.086 9.94922 8.21885 13.0664C4.96104 18.5117 4.82823 18.7383 4.81651 18.9453C4.79698 19.2031 4.90244 19.418 5.11338 19.5586L5.24619 19.6484H12.0392C18.7189 19.6484 18.8321 19.6484 18.9806 19.5703C19.2384 19.4414 19.3829 19.1016 19.3048 18.8164C19.2853 18.7422 17.7345 16.1211 15.8595 12.9922C13.2228 8.59375 12.4259 7.28906 12.3399 7.24609C12.2814 7.21484 12.1407 7.1875 12.0353 7.1875C11.8712 7.1875 11.8165 7.20703 11.7228 7.29297ZM12.4962 10.0234C12.7579 10.1562 12.8985 10.3594 12.922 10.6367C12.9337 10.8203 12.6485 15.3242 12.5939 15.7383C12.547 16.0898 12.1993 16.2891 11.8634 16.1562C11.6681 16.0781 11.5626 15.9453 11.5353 15.75C11.5274 15.6719 11.4415 14.4961 11.3478 13.1367C11.1603 10.3672 11.1564 10.4414 11.422 10.1758C11.6993 9.90234 12.1251 9.83984 12.4962 10.0234ZM12.3829 17.2266C12.8751 17.4766 12.8712 18.1875 12.3751 18.4414C12.172 18.543 11.8478 18.5312 11.6876 18.4102C11.336 18.1523 11.2774 17.7031 11.5509 17.3789C11.7501 17.1445 12.0978 17.082 12.3829 17.2266Z" fill="#0078BD"/>
</svg>
