<svg width="20" height="20" viewBox="0 0 20 20" fill="none" xmlns="http://www.w3.org/2000/svg">
<path d="M9.16027 5.4375C6.65245 5.6875 4.35558 7.08203 2.96495 9.1875C2.33214 10.1484 1.84386 11.4141 1.6798 12.5C1.65636 12.6602 1.62902 12.8516 1.6173 12.918C1.60558 13.0117 1.61339 13.0469 1.65245 13.0469C1.68761 13.0469 1.73058 12.9375 1.77355 12.7266C1.93761 11.9766 2.35949 10.9883 2.79308 10.3516C4.00402 8.57031 5.91027 7.46484 8.03917 7.30859C10.0665 7.15625 12.1681 7.99609 13.5392 9.50781C13.6876 9.67188 13.8243 9.80469 13.8478 9.80469C13.8907 9.80469 16.5782 8.76562 16.6759 8.71484C16.7853 8.65234 15.965 7.77344 15.2735 7.21484C13.6329 5.89062 11.3282 5.21875 9.16027 5.4375Z" fill="#0078BD"/>
<path d="M13.6211 10.5273L10 11.9453L9.63672 11.9414C9.17969 11.9375 8.91016 12.0352 8.64062 12.2969C8.34375 12.5898 8.26172 12.793 8.26172 13.2617C8.26172 13.5898 8.27734 13.6797 8.35156 13.832C8.49609 14.125 8.69141 14.3203 8.97656 14.4609C9.21094 14.5781 9.26953 14.5898 9.57031 14.5898C9.84375 14.5898 9.94141 14.5703 10.1172 14.4883C10.4141 14.3516 10.5898 14.1875 10.7344 13.9141L10.8594 13.6797L13.582 11.793C15.082 10.7578 16.5352 9.74609 16.8164 9.55469C17.2734 9.23438 17.375 9.13672 17.2773 9.11719C17.2617 9.11328 15.6172 9.75 13.6211 10.5273Z" fill="#0078BD"/>
<path d="M16.1445 10.7148C15.4531 11.1914 14.8867 11.6055 14.8828 11.6367C14.8828 11.6641 14.9258 11.8086 14.9766 11.9492C15.1094 12.3203 15.2734 13.0703 15.3008 13.4492C15.3125 13.625 15.3398 13.8086 15.3555 13.8555L15.3906 13.9453H16.8516C18.1094 13.9453 18.3164 13.9375 18.3594 13.8867C18.4687 13.7578 18.3281 12.3867 18.125 11.5898C17.9648 10.957 17.5234 9.84375 17.4297 9.84375C17.4141 9.84375 16.8359 10.2344 16.1445 10.7148Z" fill="#0078BD"/>
</svg>
